999
Generated by Autodesk CAM - http://cam.autodesk.com
999
UNIT = INCH
999
THICKNESS = 1.1174
0
SECTION
2
HEADER
9
$ACADVER
1
AC1006
9
$ANGBASE
50
0
9
$ANGDIR
70
0
0
ENDSEC
0
SECTION
2
BLOCKS
0
ENDSEC
9
$EXTMIN
10
0
20
0
30
0
9
$EXTMAX
10
11.0086
20
7.8933
30
0.5906
0
SECTION
2
ENTITIES
0
LINE
8
0
62
5
10
8.6117
20
7.8883
30
0
11
8.6117
21
7.0583
31
0
0
LINE
8
0
62
5
10
8.9107
20
6.9901
30
0
11
8.9107
21
4.4901
31
0
0
LINE
8
0
62
5
10
8.6117
20
3.5918
30
0
11
8.6117
21
4.4219
31
0
0
LINE
8
0
62
5
10
8.5776
20
4.4559
30
0
11
3.8476
21
4.4559
31
0
0
LINE
8
0
62
5
10
3.5145
20
4.4901
30
0
11
3.5145
21
6.9901
31
0
0
LINE
8
0
62
5
10
3.8135
20
7.8883
30
0
11
3.8135
21
7.0583
31
0
0
LINE
8
0
62
5
10
3.8476
20
7.0242
30
0
11
8.5776
21
7.0242
31
0
0
LINE
8
0
62
5
10
9.807
20
6.9901
30
0
11
9.807
21
4.4901
31
0
0
LINE
8
0
62
5
10
10.1642
20
4.4901
30
0
11
10.1642
21
6.9901
31
0
0
LINE
8
0
62
5
10
8.4407
20
1.0296
30
0
11
8.4407
21
3.4316
31
0
0
LINE
8
0
62
5
10
8.4066
20
3.5577
30
0
11
4.0186
21
3.5577
31
0
0
LINE
8
0
62
5
10
3.8135
20
3.5918
30
0
11
3.8135
21
4.4219
31
0
0
LINE
8
0
62
5
10
2.6183
20
4.4901
30
0
11
2.6183
21
6.9901
31
0
0
LINE
8
0
62
5
10
2.261
20
6.9901
30
0
11
2.261
21
4.4901
31
0
0
LINE
8
0
62
5
10
3.9845
20
3.4316
30
0
11
3.9845
21
1.0296
31
0
0
LINE
8
0
62
5
10
3.7235
20
0.8694
30
0
11
3.7235
21
0.0394
31
0
0
LINE
8
0
62
5
10
4.0186
20
0.9035
30
0
11
8.4066
21
0.9035
31
0
0
LINE
8
0
62
5
10
8.7017
20
0.8694
30
0
11
8.7017
21
0.0394
31
0
0
LINE
8
0
62
1
10
10.9653
20
6.9901
30
0
11
10.9653
21
4.4901
31
0
0
LINE
8
0
62
1
10
10.9653
20
4.4901
30
0
11
10.9652
21
4.489
31
0
0
LINE
8
0
62
1
10
10.9652
20
4.489
30
0
11
10.9648
21
4.4879
31
0
0
LINE
8
0
62
1
10
10.9648
20
4.4879
30
0
11
10.9642
21
4.487
31
0
0
LINE
8
0
62
1
10
10.9642
20
4.487
30
0
11
10.9634
21
4.4862
31
0
0
LINE
8
0
62
1
10
10.9634
20
4.4862
30
0
11
10.9625
21
4.4856
31
0
0
LINE
8
0
62
1
10
10.9625
20
4.4856
30
0
11
10.9614
21
4.4852
31
0
0
LINE
8
0
62
1
10
10.9614
20
4.4852
30
0
11
10.9603
21
4.4851
31
0
0
LINE
8
0
62
1
10
10.9603
20
4.4851
30
0
11
8.6536
21
4.4851
31
0
0
LINE
8
0
62
1
10
8.6536
20
4.4851
30
0
11
8.6525
21
4.4852
31
0
0
LINE
8
0
62
1
10
8.6525
20
4.4852
30
0
11
8.6515
21
4.4856
31
0
0
LINE
8
0
62
1
10
8.6515
20
4.4856
30
0
11
8.6505
21
4.4862
31
0
0
LINE
8
0
62
1
10
8.6505
20
4.4862
30
0
11
8.6497
21
4.487
31
0
0
LINE
8
0
62
1
10
8.6497
20
4.487
30
0
11
8.6491
21
4.4879
31
0
0
LINE
8
0
62
1
10
8.6491
20
4.4879
30
0
11
8.6487
21
4.489
31
0
0
LINE
8
0
62
1
10
8.6487
20
4.489
30
0
11
8.6486
21
4.4901
31
0
0
LINE
8
0
62
1
10
8.6486
20
4.4901
30
0
11
8.6486
21
4.5231
31
0
0
LINE
8
0
62
1
10
8.6486
20
4.5231
30
0
11
8.5826
21
4.5231
31
0
0
LINE
8
0
62
1
10
8.5826
20
4.5231
30
0
11
8.5826
21
4.4269
31
0
0
LINE
8
0
62
1
10
8.5826
20
4.4269
30
0
11
9.6358
21
4.4269
31
0
0
LINE
8
0
62
1
10
9.6358
20
4.4269
30
0
11
9.6369
21
4.4267
31
0
0
LINE
8
0
62
1
10
9.6369
20
4.4267
30
0
11
9.638
21
4.4264
31
0
0
LINE
8
0
62
1
10
9.638
20
4.4264
30
0
11
9.6389
21
4.4258
31
0
0
LINE
8
0
62
1
10
9.6389
20
4.4258
30
0
11
9.6397
21
4.425
31
0
0
LINE
8
0
62
1
10
9.6397
20
4.425
30
0
11
9.6403
21
4.424
31
0
0
LINE
8
0
62
1
10
9.6403
20
4.424
30
0
11
9.6407
21
4.423
31
0
0
LINE
8
0
62
1
10
9.6407
20
4.423
30
0
11
9.6408
21
4.4219
31
0
0
LINE
8
0
62
1
10
9.6408
20
4.4219
30
0
11
9.6408
21
3.5918
31
0
0
LINE
8
0
62
1
10
9.6408
20
3.5918
30
0
11
9.6407
21
3.5907
31
0
0
LINE
8
0
62
1
10
9.6407
20
3.5907
30
0
11
9.6403
21
3.5897
31
0
0
LINE
8
0
62
1
10
9.6403
20
3.5897
30
0
11
9.6397
21
3.5887
31
0
0
LINE
8
0
62
1
10
9.6397
20
3.5887
30
0
11
9.6389
21
3.5879
31
0
0
LINE
8
0
62
1
10
9.6389
20
3.5879
30
0
11
9.638
21
3.5873
31
0
0
LINE
8
0
62
1
10
9.638
20
3.5873
30
0
11
9.6369
21
3.587
31
0
0
LINE
8
0
62
1
10
9.6369
20
3.587
30
0
11
9.6358
21
3.5868
31
0
0
LINE
8
0
62
1
10
9.6358
20
3.5868
30
0
11
8.4116
21
3.5868
31
0
0
LINE
8
0
62
1
10
8.4116
20
3.5868
30
0
11
8.4116
21
3.4418
31
0
0
LINE
8
0
62
1
10
8.4116
20
3.4418
30
0
11
9.3057
21
3.2841
31
0
0
LINE
8
0
62
1
10
9.3057
20
3.2841
30
0
11
9.3068
21
3.2838
31
0
0
LINE
8
0
62
1
10
9.3068
20
3.2838
30
0
11
9.3078
21
3.2832
31
0
0
LINE
8
0
62
1
10
9.3078
20
3.2832
30
0
11
9.3087
21
3.2824
31
0
0
LINE
8
0
62
1
10
9.3087
20
3.2824
30
0
11
9.3093
21
3.2815
31
0
0
LINE
8
0
62
1
10
9.3093
20
3.2815
30
0
11
9.3097
21
3.2804
31
0
0
LINE
8
0
62
1
10
9.3097
20
3.2804
30
0
11
9.3098
21
3.2792
31
0
0
LINE
8
0
62
1
10
9.3098
20
3.2792
30
0
11
9.3098
21
1.182
31
0
0
LINE
8
0
62
1
10
9.3098
20
1.182
30
0
11
9.3097
21
1.1808
31
0
0
LINE
8
0
62
1
10
9.3097
20
1.1808
30
0
11
9.3093
21
1.1797
31
0
0
LINE
8
0
62
1
10
9.3093
20
1.1797
30
0
11
9.3087
21
1.1788
31
0
0
LINE
8
0
62
1
10
9.3087
20
1.1788
30
0
11
9.3078
21
1.178
31
0
0
LINE
8
0
62
1
10
9.3078
20
1.178
30
0
11
9.3068
21
1.1774
31
0
0
LINE
8
0
62
1
10
9.3068
20
1.1774
30
0
11
9.3057
21
1.1771
31
0
0
LINE
8
0
62
1
10
9.3057
20
1.1771
30
0
11
8.4116
21
1.0194
31
0
0
LINE
8
0
62
1
10
8.4116
20
1.0194
30
0
11
8.4116
21
0.8744
31
0
0
LINE
8
0
62
1
10
8.4116
20
0.8744
30
0
11
8.9758
21
0.8744
31
0
0
LINE
8
0
62
1
10
8.9758
20
0.8744
30
0
11
8.9911
21
0.8742
31
0
0
LINE
8
0
62
1
10
8.9911
20
0.8742
30
0
11
9.0064
21
0.8738
31
0
0
LINE
8
0
62
1
10
9.0064
20
0.8738
30
0
11
9.0217
21
0.873
31
0
0
LINE
8
0
62
1
10
9.0217
20
0.873
30
0
11
9.0369
21
0.8719
31
0
0
LINE
8
0
62
1
10
9.0369
20
0.8719
30
0
11
9.0522
21
0.8705
31
0
0
LINE
8
0
62
1
10
9.0522
20
0.8705
30
0
11
9.0673
21
0.8688
31
0
0
LINE
8
0
62
1
10
9.0673
20
0.8688
30
0
11
9.0825
21
0.8668
31
0
0
LINE
8
0
62
1
10
9.0825
20
0.8668
30
0
11
9.0976
21
0.8645
31
0
0
LINE
8
0
62
1
10
9.0976
20
0.8645
30
0
11
9.1127
21
0.8619
31
0
0
LINE
8
0
62
1
10
9.1127
20
0.8619
30
0
11
9.1277
21
0.8589
31
0
0
LINE
8
0
62
1
10
9.1277
20
0.8589
30
0
11
9.1426
21
0.8557
31
0
0
LINE
8
0
62
1
10
9.1426
20
0.8557
30
0
11
9.1575
21
0.8522
31
0
0
LINE
8
0
62
1
10
9.1575
20
0.8522
30
0
11
9.1723
21
0.8484
31
0
0
LINE
8
0
62
1
10
9.1723
20
0.8484
30
0
11
9.187
21
0.8442
31
0
0
LINE
8
0
62
1
10
9.187
20
0.8442
30
0
11
9.2017
21
0.8398
31
0
0
LINE
8
0
62
1
10
9.2017
20
0.8398
30
0
11
9.2162
21
0.8351
31
0
0
LINE
8
0
62
1
10
9.2162
20
0.8351
30
0
11
9.2307
21
0.8301
31
0
0
LINE
8
0
62
1
10
9.2307
20
0.8301
30
0
11
9.245
21
0.8248
31
0
0
LINE
8
0
62
1
10
9.245
20
0.8248
30
0
11
9.2592
21
0.8192
31
0
0
LINE
8
0
62
1
10
9.2592
20
0.8192
30
0
11
9.2734
21
0.8133
31
0
0
LINE
8
0
62
1
10
9.2734
20
0.8133
30
0
11
9.2874
21
0.8071
31
0
0
LINE
8
0
62
1
10
9.2874
20
0.8071
30
0
11
9.3012
21
0.8007
31
0
0
LINE
8
0
62
1
10
9.3012
20
0.8007
30
0
11
9.3149
21
0.7939
31
0
0
LINE
8
0
62
1
10
9.3149
20
0.7939
30
0
11
9.3285
21
0.7869
31
0
0
LINE
8
0
62
1
10
9.3285
20
0.7869
30
0
11
9.342
21
0.7796
31
0
0
LINE
8
0
62
1
10
9.342
20
0.7796
30
0
11
9.3553
21
0.7721
31
0
0
LINE
8
0
62
1
10
9.3553
20
0.7721
30
0
11
9.3684
21
0.7643
31
0
0
LINE
8
0
62
1
10
9.3684
20
0.7643
30
0
11
9.3814
21
0.7562
31
0
0
LINE
8
0
62
1
10
9.3814
20
0.7562
30
0
11
9.3942
21
0.7478
31
0
0
LINE
8
0
62
1
10
9.3942
20
0.7478
30
0
11
9.4069
21
0.7392
31
0
0
LINE
8
0
62
1
10
9.4069
20
0.7392
30
0
11
9.4193
21
0.7304
31
0
0
LINE
8
0
62
1
10
9.4193
20
0.7304
30
0
11
9.4316
21
0.7213
31
0
0
LINE
8
0
62
1
10
9.4316
20
0.7213
30
0
11
9.4437
21
0.7119
31
0
0
LINE
8
0
62
1
10
9.4437
20
0.7119
30
0
11
9.4556
21
0.7023
31
0
0
LINE
8
0
62
1
10
9.4556
20
0.7023
30
0
11
9.4673
21
0.6925
31
0
0
LINE
8
0
62
1
10
9.4673
20
0.6925
30
0
11
9.4788
21
0.6824
31
0
0
LINE
8
0
62
1
10
9.4788
20
0.6824
30
0
11
9.4901
21
0.6721
31
0
0
LINE
8
0
62
1
10
9.4901
20
0.6721
30
0
11
9.5012
21
0.6616
31
0
0
LINE
8
0
62
1
10
9.5012
20
0.6616
30
0
11
9.5121
21
0.6508
31
0
0
LINE
8
0
62
1
10
9.5121
20
0.6508
30
0
11
9.5227
21
0.6399
31
0
0
LINE
8
0
62
1
10
9.5227
20
0.6399
30
0
11
9.5332
21
0.6287
31
0
0
LINE
8
0
62
1
10
9.5332
20
0.6287
30
0
11
9.5434
21
0.6173
31
0
0
LINE
8
0
62
1
10
9.5434
20
0.6173
30
0
11
9.5533
21
0.6057
31
0
0
LINE
8
0
62
1
10
9.5533
20
0.6057
30
0
11
9.5631
21
0.5939
31
0
0
LINE
8
0
62
1
10
9.5631
20
0.5939
30
0
11
9.5726
21
0.5819
31
0
0
LINE
8
0
62
1
10
9.5726
20
0.5819
30
0
11
9.5818
21
0.5697
31
0
0
LINE
8
0
62
1
10
9.5818
20
0.5697
30
0
11
9.5908
21
0.5574
31
0
0
LINE
8
0
62
1
10
9.5908
20
0.5574
30
0
11
9.5995
21
0.5448
31
0
0
LINE
8
0
62
1
10
9.5995
20
0.5448
30
0
11
9.608
21
0.5321
31
0
0
LINE
8
0
62
1
10
9.608
20
0.5321
30
0
11
9.6163
21
0.5192
31
0
0
LINE
8
0
62
1
10
9.6163
20
0.5192
30
0
11
9.6242
21
0.5062
31
0
0
LINE
8
0
62
1
10
9.6242
20
0.5062
30
0
11
9.6319
21
0.493
31
0
0
LINE
8
0
62
1
10
9.6319
20
0.493
30
0
11
9.6394
21
0.4796
31
0
0
LINE
8
0
62
1
10
9.6394
20
0.4796
30
0
11
9.6465
21
0.4661
31
0
0
LINE
8
0
62
1
10
9.6465
20
0.4661
30
0
11
9.6534
21
0.4524
31
0
0
LINE
8
0
62
1
10
9.6534
20
0.4524
30
0
11
9.66
21
0.4386
31
0
0
LINE
8
0
62
1
10
9.66
20
0.4386
30
0
11
9.6663
21
0.4247
31
0
0
LINE
8
0
62
1
10
9.6663
20
0.4247
30
0
11
9.6724
21
0.4107
31
0
0
LINE
8
0
62
1
10
9.6724
20
0.4107
30
0
11
9.6781
21
0.3965
31
0
0
LINE
8
0
62
1
10
9.6781
20
0.3965
30
0
11
9.6836
21
0.3822
31
0
0
LINE
8
0
62
1
10
9.6836
20
0.3822
30
0
11
9.6888
21
0.3678
31
0
0
LINE
8
0
62
1
10
9.6888
20
0.3678
30
0
11
9.6937
21
0.3534
31
0
0
LINE
8
0
62
1
10
9.6937
20
0.3534
30
0
11
9.6983
21
0.3388
31
0
0
LINE
8
0
62
1
10
9.6983
20
0.3388
30
0
11
9.7026
21
0.3241
31
0
0
LINE
8
0
62
1
10
9.7026
20
0.3241
30
0
11
9.7066
21
0.3093
31
0
0
LINE
8
0
62
1
10
9.7066
20
0.3093
30
0
11
9.7103
21
0.2945
31
0
0
LINE
8
0
62
1
10
9.7103
20
0.2945
30
0
11
9.7136
21
0.2796
31
0
0
LINE
8
0
62
1
10
9.7136
20
0.2796
30
0
11
9.7167
21
0.2646
31
0
0
LINE
8
0
62
1
10
9.7167
20
0.2646
30
0
11
9.7195
21
0.2496
31
0
0
LINE
8
0
62
1
10
9.7195
20
0.2496
30
0
11
9.722
21
0.2345
31
0
0
LINE
8
0
62
1
10
9.722
20
0.2345
30
0
11
9.7242
21
0.2194
31
0
0
LINE
8
0
62
1
10
9.7242
20
0.2194
30
0
11
9.7261
21
0.2042
31
0
0
LINE
8
0
62
1
10
9.7261
20
0.2042
30
0
11
9.7276
21
0.189
31
0
0
LINE
8
0
62
1
10
9.7276
20
0.189
30
0
11
9.7289
21
0.1737
31
0
0
LINE
8
0
62
1
10
9.7289
20
0.1737
30
0
11
9.7292
21
0.1675
31
0
0
LINE
8
0
62
1
10
9.7292
20
0.1675
30
0
11
9.7292
21
0.1612
31
0
0
LINE
8
0
62
1
10
9.7292
20
0.1612
30
0
11
9.7289
21
0.1549
31
0
0
LINE
8
0
62
1
10
9.7289
20
0.1549
30
0
11
9.7283
21
0.1486
31
0
0
LINE
8
0
62
1
10
9.7283
20
0.1486
30
0
11
9.7274
21
0.1424
31
0
0
LINE
8
0
62
1
10
9.7274
20
0.1424
30
0
11
9.7261
21
0.1363
31
0
0
LINE
8
0
62
1
10
9.7261
20
0.1363
30
0
11
9.7246
21
0.1302
31
0
0
LINE
8
0
62
1
10
9.7246
20
0.1302
30
0
11
9.7228
21
0.1242
31
0
0
LINE
8
0
62
1
10
9.7228
20
0.1242
30
0
11
9.7208
21
0.1182
31
0
0
LINE
8
0
62
1
10
9.7208
20
0.1182
30
0
11
9.7184
21
0.1124
31
0
0
LINE
8
0
62
1
10
9.7184
20
0.1124
30
0
11
9.7157
21
0.1067
31
0
0
LINE
8
0
62
1
10
9.7157
20
0.1067
30
0
11
9.7128
21
0.1012
31
0
0
LINE
8
0
62
1
10
9.7128
20
0.1012
30
0
11
9.7096
21
0.0957
31
0
0
LINE
8
0
62
1
10
9.7096
20
0.0957
30
0
11
9.7062
21
0.0905
31
0
0
LINE
8
0
62
1
10
9.7062
20
0.0905
30
0
11
9.7025
21
0.0854
31
0
0
LINE
8
0
62
1
10
9.7025
20
0.0854
30
0
11
9.6986
21
0.0805
31
0
0
LINE
8
0
62
1
10
9.6986
20
0.0805
30
0
11
9.6944
21
0.0758
31
0
0
LINE
8
0
62
1
10
9.6944
20
0.0758
30
0
11
9.69
21
0.0713
31
0
0
LINE
8
0
62
1
10
9.69
20
0.0713
30
0
11
9.6854
21
0.067
31
0
0
LINE
8
0
62
1
10
9.6854
20
0.067
30
0
11
9.6806
21
0.063
31
0
0
LINE
8
0
62
1
10
9.6806
20
0.063
30
0
11
9.6756
21
0.0592
31
0
0
LINE
8
0
62
1
10
9.6756
20
0.0592
30
0
11
9.6704
21
0.0556
31
0
0
LINE
8
0
62
1
10
9.6704
20
0.0556
30
0
11
9.6651
21
0.0523
31
0
0
LINE
8
0
62
1
10
9.6651
20
0.0523
30
0
11
9.6596
21
0.0493
31
0
0
LINE
8
0
62
1
10
9.6596
20
0.0493
30
0
11
9.654
21
0.0465
31
0
0
LINE
8
0
62
1
10
9.654
20
0.0465
30
0
11
9.6482
21
0.044
31
0
0
LINE
8
0
62
1
10
9.6482
20
0.044
30
0
11
9.6424
21
0.0417
31
0
0
LINE
8
0
62
1
10
9.6424
20
0.0417
30
0
11
9.6364
21
0.0398
31
0
0
LINE
8
0
62
1
10
9.6364
20
0.0398
30
0
11
9.6303
21
0.0381
31
0
0
LINE
8
0
62
1
10
9.6303
20
0.0381
30
0
11
9.6242
21
0.0368
31
0
0
LINE
8
0
62
1
10
9.6242
20
0.0368
30
0
11
9.618
21
0.0357
31
0
0
LINE
8
0
62
1
10
9.618
20
0.0357
30
0
11
9.6118
21
0.035
31
0
0
LINE
8
0
62
1
10
9.6118
20
0.035
30
0
11
9.6055
21
0.0345
31
0
0
LINE
8
0
62
1
10
9.6055
20
0.0345
30
0
11
9.5992
21
0.0344
31
0
0
LINE
8
0
62
1
10
9.5992
20
0.0344
30
0
11
2.826
21
0.0344
31
0
0
LINE
8
0
62
1
10
2.826
20
0.0344
30
0
11
2.8197
21
0.0345
31
0
0
LINE
8
0
62
1
10
2.8197
20
0.0345
30
0
11
2.8134
21
0.035
31
0
0
LINE
8
0
62
1
10
2.8134
20
0.035
30
0
11
2.8072
21
0.0357
31
0
0
LINE
8
0
62
1
10
2.8072
20
0.0357
30
0
11
2.801
21
0.0368
31
0
0
LINE
8
0
62
1
10
2.801
20
0.0368
30
0
11
2.7949
21
0.0381
31
0
0
LINE
8
0
62
1
10
2.7949
20
0.0381
30
0
11
2.7888
21
0.0398
31
0
0
LINE
8
0
62
1
10
2.7888
20
0.0398
30
0
11
2.7829
21
0.0417
31
0
0
LINE
8
0
62
1
10
2.7829
20
0.0417
30
0
11
2.777
21
0.044
31
0
0
LINE
8
0
62
1
10
2.777
20
0.044
30
0
11
2.7712
21
0.0465
31
0
0
LINE
8
0
62
1
10
2.7712
20
0.0465
30
0
11
2.7656
21
0.0493
31
0
0
LINE
8
0
62
1
10
2.7656
20
0.0493
30
0
11
2.7601
21
0.0523
31
0
0
LINE
8
0
62
1
10
2.7601
20
0.0523
30
0
11
2.7548
21
0.0556
31
0
0
LINE
8
0
62
1
10
2.7548
20
0.0556
30
0
11
2.7496
21
0.0592
31
0
0
LINE
8
0
62
1
10
2.7496
20
0.0592
30
0
11
2.7446
21
0.063
31
0
0
LINE
8
0
62
1
10
2.7446
20
0.063
30
0
11
2.7398
21
0.067
31
0
0
LINE
8
0
62
1
10
2.7398
20
0.067
30
0
11
2.7352
21
0.0713
31
0
0
LINE
8
0
62
1
10
2.7352
20
0.0713
30
0
11
2.7308
21
0.0758
31
0
0
LINE
8
0
62
1
10
2.7308
20
0.0758
30
0
11
2.7266
21
0.0805
31
0
0
LINE
8
0
62
1
10
2.7266
20
0.0805
30
0
11
2.7227
21
0.0854
31
0
0
LINE
8
0
62
1
10
2.7227
20
0.0854
30
0
11
2.719
21
0.0905
31
0
0
LINE
8
0
62
1
10
2.719
20
0.0905
30
0
11
2.7156
21
0.0957
31
0
0
LINE
8
0
62
1
10
2.7156
20
0.0957
30
0
11
2.7124
21
0.1012
31
0
0
LINE
8
0
62
1
10
2.7124
20
0.1012
30
0
11
2.7095
21
0.1067
31
0
0
LINE
8
0
62
1
10
2.7095
20
0.1067
30
0
11
2.7068
21
0.1124
31
0
0
LINE
8
0
62
1
10
2.7068
20
0.1124
30
0
11
2.7045
21
0.1182
31
0
0
LINE
8
0
62
1
10
2.7045
20
0.1182
30
0
11
2.7024
21
0.1242
31
0
0
LINE
8
0
62
1
10
2.7024
20
0.1242
30
0
11
2.7006
21
0.1302
31
0
0
LINE
8
0
62
1
10
2.7006
20
0.1302
30
0
11
2.6991
21
0.1363
31
0
0
LINE
8
0
62
1
10
2.6991
20
0.1363
30
0
11
2.6979
21
0.1424
31
0
0
LINE
8
0
62
1
10
2.6979
20
0.1424
30
0
11
2.6969
21
0.1487
31
0
0
LINE
8
0
62
1
10
2.6969
20
0.1487
30
0
11
2.6963
21
0.1549
31
0
0
LINE
8
0
62
1
10
2.6963
20
0.1549
30
0
11
2.696
21
0.1612
31
0
0
LINE
8
0
62
1
10
2.696
20
0.1612
30
0
11
2.696
21
0.1675
31
0
0
LINE
8
0
62
1
10
2.696
20
0.1675
30
0
11
2.6963
21
0.1737
31
0
0
LINE
8
0
62
1
10
2.6963
20
0.1737
30
0
11
2.6976
21
0.189
31
0
0
LINE
8
0
62
1
10
2.6976
20
0.189
30
0
11
2.6991
21
0.2042
31
0
0
LINE
8
0
62
1
10
2.6991
20
0.2042
30
0
11
2.701
21
0.2194
31
0
0
LINE
8
0
62
1
10
2.701
20
0.2194
30
0
11
2.7032
21
0.2345
31
0
0
LINE
8
0
62
1
10
2.7032
20
0.2345
30
0
11
2.7057
21
0.2496
31
0
0
LINE
8
0
62
1
10
2.7057
20
0.2496
30
0
11
2.7085
21
0.2646
31
0
0
LINE
8
0
62
1
10
2.7085
20
0.2646
30
0
11
2.7116
21
0.2796
31
0
0
LINE
8
0
62
1
10
2.7116
20
0.2796
30
0
11
2.715
21
0.2945
31
0
0
LINE
8
0
62
1
10
2.715
20
0.2945
30
0
11
2.7187
21
0.3093
31
0
0
LINE
8
0
62
1
10
2.7187
20
0.3093
30
0
11
2.7227
21
0.3241
31
0
0
LINE
8
0
62
1
10
2.7227
20
0.3241
30
0
11
2.7269
21
0.3388
31
0
0
LINE
8
0
62
1
10
2.7269
20
0.3388
30
0
11
2.7315
21
0.3534
31
0
0
LINE
8
0
62
1
10
2.7315
20
0.3534
30
0
11
2.7364
21
0.3678
31
0
0
LINE
8
0
62
1
10
2.7364
20
0.3678
30
0
11
2.7416
21
0.3822
31
0
0
LINE
8
0
62
1
10
2.7416
20
0.3822
30
0
11
2.7471
21
0.3965
31
0
0
LINE
8
0
62
1
10
2.7471
20
0.3965
30
0
11
2.7528
21
0.4107
31
0
0
LINE
8
0
62
1
10
2.7528
20
0.4107
30
0
11
2.7589
21
0.4247
31
0
0
LINE
8
0
62
1
10
2.7589
20
0.4247
30
0
11
2.7652
21
0.4386
31
0
0
LINE
8
0
62
1
10
2.7652
20
0.4386
30
0
11
2.7718
21
0.4524
31
0
0
LINE
8
0
62
1
10
2.7718
20
0.4524
30
0
11
2.7787
21
0.4661
31
0
0
LINE
8
0
62
1
10
2.7787
20
0.4661
30
0
11
2.7858
21
0.4796
31
0
0
LINE
8
0
62
1
10
2.7858
20
0.4796
30
0
11
2.7933
21
0.493
31
0
0
LINE
8
0
62
1
10
2.7933
20
0.493
30
0
11
2.801
21
0.5062
31
0
0
LINE
8
0
62
1
10
2.801
20
0.5062
30
0
11
2.8089
21
0.5192
31
0
0
LINE
8
0
62
1
10
2.8089
20
0.5192
30
0
11
2.8172
21
0.5321
31
0
0
LINE
8
0
62
1
10
2.8172
20
0.5321
30
0
11
2.8257
21
0.5448
31
0
0
LINE
8
0
62
1
10
2.8257
20
0.5448
30
0
11
2.8344
21
0.5574
31
0
0
LINE
8
0
62
1
10
2.8344
20
0.5574
30
0
11
2.8434
21
0.5697
31
0
0
LINE
8
0
62
1
10
2.8434
20
0.5697
30
0
11
2.8526
21
0.5819
31
0
0
LINE
8
0
62
1
10
2.8526
20
0.5819
30
0
11
2.8621
21
0.5939
31
0
0
LINE
8
0
62
1
10
2.8621
20
0.5939
30
0
11
2.8719
21
0.6057
31
0
0
LINE
8
0
62
1
10
2.8719
20
0.6057
30
0
11
2.8818
21
0.6173
31
0
0
LINE
8
0
62
1
10
2.8818
20
0.6173
30
0
11
2.892
21
0.6287
31
0
0
LINE
8
0
62
1
10
2.892
20
0.6287
30
0
11
2.9025
21
0.6399
31
0
0
LINE
8
0
62
1
10
2.9025
20
0.6399
30
0
11
2.9131
21
0.6508
31
0
0
LINE
8
0
62
1
10
2.9131
20
0.6508
30
0
11
2.924
21
0.6616
31
0
0
LINE
8
0
62
1
10
2.924
20
0.6616
30
0
11
2.9351
21
0.6721
31
0
0
LINE
8
0
62
1
10
2.9351
20
0.6721
30
0
11
2.9464
21
0.6824
31
0
0
LINE
8
0
62
1
10
2.9464
20
0.6824
30
0
11
2.9579
21
0.6925
31
0
0
LINE
8
0
62
1
10
2.9579
20
0.6925
30
0
11
2.9696
21
0.7023
31
0
0
LINE
8
0
62
1
10
2.9696
20
0.7023
30
0
11
2.9815
21
0.7119
31
0
0
LINE
8
0
62
1
10
2.9815
20
0.7119
30
0
11
2.9936
21
0.7213
31
0
0
LINE
8
0
62
1
10
2.9936
20
0.7213
30
0
11
3.0059
21
0.7304
31
0
0
LINE
8
0
62
1
10
3.0059
20
0.7304
30
0
11
3.0183
21
0.7392
31
0
0
LINE
8
0
62
1
10
3.0183
20
0.7392
30
0
11
3.031
21
0.7478
31
0
0
LINE
8
0
62
1
10
3.031
20
0.7478
30
0
11
3.0438
21
0.7562
31
0
0
LINE
8
0
62
1
10
3.0438
20
0.7562
30
0
11
3.0568
21
0.7643
31
0
0
LINE
8
0
62
1
10
3.0568
20
0.7643
30
0
11
3.0699
21
0.7721
31
0
0
LINE
8
0
62
1
10
3.0699
20
0.7721
30
0
11
3.0832
21
0.7796
31
0
0
LINE
8
0
62
1
10
3.0832
20
0.7796
30
0
11
3.0967
21
0.7869
31
0
0
LINE
8
0
62
1
10
3.0967
20
0.7869
30
0
11
3.1103
21
0.7939
31
0
0
LINE
8
0
62
1
10
3.1103
20
0.7939
30
0
11
3.124
21
0.8007
31
0
0
LINE
8
0
62
1
10
3.124
20
0.8007
30
0
11
3.1378
21
0.8071
31
0
0
LINE
8
0
62
1
10
3.1378
20
0.8071
30
0
11
3.1518
21
0.8133
31
0
0
LINE
8
0
62
1
10
3.1518
20
0.8133
30
0
11
3.166
21
0.8192
31
0
0
LINE
8
0
62
1
10
3.166
20
0.8192
30
0
11
3.1802
21
0.8248
31
0
0
LINE
8
0
62
1
10
3.1802
20
0.8248
30
0
11
3.1945
21
0.8301
31
0
0
LINE
8
0
62
1
10
3.1945
20
0.8301
30
0
11
3.209
21
0.8351
31
0
0
LINE
8
0
62
1
10
3.209
20
0.8351
30
0
11
3.2235
21
0.8398
31
0
0
LINE
8
0
62
1
10
3.2235
20
0.8398
30
0
11
3.2382
21
0.8442
31
0
0
LINE
8
0
62
1
10
3.2382
20
0.8442
30
0
11
3.2529
21
0.8484
31
0
0
LINE
8
0
62
1
10
3.2529
20
0.8484
30
0
11
3.2677
21
0.8522
31
0
0
LINE
8
0
62
1
10
3.2677
20
0.8522
30
0
11
3.2826
21
0.8557
31
0
0
LINE
8
0
62
1
10
3.2826
20
0.8557
30
0
11
3.2975
21
0.8589
31
0
0
LINE
8
0
62
1
10
3.2975
20
0.8589
30
0
11
3.3125
21
0.8619
31
0
0
LINE
8
0
62
1
10
3.3125
20
0.8619
30
0
11
3.3276
21
0.8645
31
0
0
LINE
8
0
62
1
10
3.3276
20
0.8645
30
0
11
3.3427
21
0.8668
31
0
0
LINE
8
0
62
1
10
3.3427
20
0.8668
30
0
11
3.3578
21
0.8688
31
0
0
LINE
8
0
62
1
10
3.3578
20
0.8688
30
0
11
3.373
21
0.8705
31
0
0
LINE
8
0
62
1
10
3.373
20
0.8705
30
0
11
3.3883
21
0.8719
31
0
0
LINE
8
0
62
1
10
3.3883
20
0.8719
30
0
11
3.4035
21
0.873
31
0
0
LINE
8
0
62
1
10
3.4035
20
0.873
30
0
11
3.4188
21
0.8738
31
0
0
LINE
8
0
62
1
10
3.4188
20
0.8738
30
0
11
3.4341
21
0.8742
31
0
0
LINE
8
0
62
1
10
3.4341
20
0.8742
30
0
11
3.4494
21
0.8744
31
0
0
LINE
8
0
62
1
10
3.4494
20
0.8744
30
0
11
4.0136
21
0.8744
31
0
0
LINE
8
0
62
1
10
4.0136
20
0.8744
30
0
11
4.0136
21
1.0194
31
0
0
LINE
8
0
62
1
10
4.0136
20
1.0194
30
0
11
3.1195
21
1.1771
31
0
0
LINE
8
0
62
1
10
3.1195
20
1.1771
30
0
11
3.1184
21
1.1774
31
0
0
LINE
8
0
62
1
10
3.1184
20
1.1774
30
0
11
3.1174
21
1.178
31
0
0
LINE
8
0
62
1
10
3.1174
20
1.178
30
0
11
3.1165
21
1.1788
31
0
0
LINE
8
0
62
1
10
3.1165
20
1.1788
30
0
11
3.1159
21
1.1797
31
0
0
LINE
8
0
62
1
10
3.1159
20
1.1797
30
0
11
3.1155
21
1.1808
31
0
0
LINE
8
0
62
1
10
3.1155
20
1.1808
30
0
11
3.1154
21
1.182
31
0
0
LINE
8
0
62
1
10
3.1154
20
1.182
30
0
11
3.1154
21
3.2792
31
0
0
LINE
8
0
62
1
10
3.1154
20
3.2792
30
0
11
3.1155
21
3.2804
31
0
0
LINE
8
0
62
1
10
3.1155
20
3.2804
30
0
11
3.1159
21
3.2815
31
0
0
LINE
8
0
62
1
10
3.1159
20
3.2815
30
0
11
3.1165
21
3.2824
31
0
0
LINE
8
0
62
1
10
3.1165
20
3.2824
30
0
11
3.1174
21
3.2832
31
0
0
LINE
8
0
62
1
10
3.1174
20
3.2832
30
0
11
3.1184
21
3.2838
31
0
0
LINE
8
0
62
1
10
3.1184
20
3.2838
30
0
11
3.1195
21
3.2841
31
0
0
LINE
8
0
62
1
10
3.1195
20
3.2841
30
0
11
4.0136
21
3.4418
31
0
0
LINE
8
0
62
1
10
4.0136
20
3.4418
30
0
11
4.0136
21
3.5868
31
0
0
LINE
8
0
62
1
10
4.0136
20
3.5868
30
0
11
2.7894
21
3.5868
31
0
0
LINE
8
0
62
1
10
2.7894
20
3.5868
30
0
11
2.7883
21
3.587
31
0
0
LINE
8
0
62
1
10
2.7883
20
3.587
30
0
11
2.7872
21
3.5873
31
0
0
LINE
8
0
62
1
10
2.7872
20
3.5873
30
0
11
2.7863
21
3.5879
31
0
0
LINE
8
0
62
1
10
2.7863
20
3.5879
30
0
11
2.7855
21
3.5887
31
0
0
LINE
8
0
62
1
10
2.7855
20
3.5887
30
0
11
2.7849
21
3.5897
31
0
0
LINE
8
0
62
1
10
2.7849
20
3.5897
30
0
11
2.7845
21
3.5907
31
0
0
LINE
8
0
62
1
10
2.7845
20
3.5907
30
0
11
2.7844
21
3.5918
31
0
0
LINE
8
0
62
1
10
2.7844
20
3.5918
30
0
11
2.7844
21
4.4219
31
0
0
LINE
8
0
62
1
10
2.7844
20
4.4219
30
0
11
2.7845
21
4.423
31
0
0
LINE
8
0
62
1
10
2.7845
20
4.423
30
0
11
2.7849
21
4.424
31
0
0
LINE
8
0
62
1
10
2.7849
20
4.424
30
0
11
2.7855
21
4.425
31
0
0
LINE
8
0
62
1
10
2.7855
20
4.425
30
0
11
2.7863
21
4.4258
31
0
0
LINE
8
0
62
1
10
2.7863
20
4.4258
30
0
11
2.7872
21
4.4264
31
0
0
LINE
8
0
62
1
10
2.7872
20
4.4264
30
0
11
2.7883
21
4.4267
31
0
0
LINE
8
0
62
1
10
2.7883
20
4.4267
30
0
11
2.7894
21
4.4269
31
0
0
LINE
8
0
62
1
10
2.7894
20
4.4269
30
0
11
3.8426
21
4.4269
31
0
0
LINE
8
0
62
1
10
3.8426
20
4.4269
30
0
11
3.8426
21
4.5231
31
0
0
LINE
8
0
62
1
10
3.8426
20
4.5231
30
0
11
3.7766
21
4.5231
31
0
0
LINE
8
0
62
1
10
3.7766
20
4.5231
30
0
11
3.7766
21
4.4901
31
0
0
LINE
8
0
62
1
10
3.7766
20
4.4901
30
0
11
3.7765
21
4.489
31
0
0
LINE
8
0
62
1
10
3.7765
20
4.489
30
0
11
3.7761
21
4.4879
31
0
0
LINE
8
0
62
1
10
3.7761
20
4.4879
30
0
11
3.7755
21
4.487
31
0
0
LINE
8
0
62
1
10
3.7755
20
4.487
30
0
11
3.7747
21
4.4862
31
0
0
LINE
8
0
62
1
10
3.7747
20
4.4862
30
0
11
3.7738
21
4.4856
31
0
0
LINE
8
0
62
1
10
3.7738
20
4.4856
30
0
11
3.7727
21
4.4852
31
0
0
LINE
8
0
62
1
10
3.7727
20
4.4852
30
0
11
3.7716
21
4.4851
31
0
0
LINE
8
0
62
1
10
3.7716
20
4.4851
30
0
11
1.4649
21
4.4851
31
0
0
LINE
8
0
62
1
10
1.4649
20
4.4851
30
0
11
1.4638
21
4.4852
31
0
0
LINE
8
0
62
1
10
1.4638
20
4.4852
30
0
11
1.4627
21
4.4856
31
0
0
LINE
8
0
62
1
10
1.4627
20
4.4856
30
0
11
1.4618
21
4.4862
31
0
0
LINE
8
0
62
1
10
1.4618
20
4.4862
30
0
11
1.461
21
4.487
31
0
0
LINE
8
0
62
1
10
1.461
20
4.487
30
0
11
1.4604
21
4.4879
31
0
0
LINE
8
0
62
1
10
1.4604
20
4.4879
30
0
11
1.46
21
4.489
31
0
0
LINE
8
0
62
1
10
1.46
20
4.489
30
0
11
1.4599
21
4.4901
31
0
0
LINE
8
0
62
1
10
1.4599
20
4.4901
30
0
11
1.4599
21
6.9901
31
0
0
LINE
8
0
62
1
10
1.4599
20
6.9901
30
0
11
1.46
21
6.9912
31
0
0
LINE
8
0
62
1
10
1.46
20
6.9912
30
0
11
1.4604
21
6.9922
31
0
0
LINE
8
0
62
1
10
1.4604
20
6.9922
30
0
11
1.461
21
6.9932
31
0
0
LINE
8
0
62
1
10
1.461
20
6.9932
30
0
11
1.4618
21
6.994
31
0
0
LINE
8
0
62
1
10
1.4618
20
6.994
30
0
11
1.4627
21
6.9946
31
0
0
LINE
8
0
62
1
10
1.4627
20
6.9946
30
0
11
1.4638
21
6.995
31
0
0
LINE
8
0
62
1
10
1.4638
20
6.995
30
0
11
1.4649
21
6.9951
31
0
0
LINE
8
0
62
1
10
1.4649
20
6.9951
30
0
11
3.7716
21
6.9951
31
0
0
LINE
8
0
62
1
10
3.7716
20
6.9951
30
0
11
3.7727
21
6.995
31
0
0
LINE
8
0
62
1
10
3.7727
20
6.995
30
0
11
3.7738
21
6.9946
31
0
0
LINE
8
0
62
1
10
3.7738
20
6.9946
30
0
11
3.7747
21
6.994
31
0
0
LINE
8
0
62
1
10
3.7747
20
6.994
30
0
11
3.7755
21
6.9932
31
0
0
LINE
8
0
62
1
10
3.7755
20
6.9932
30
0
11
3.7761
21
6.9922
31
0
0
LINE
8
0
62
1
10
3.7761
20
6.9922
30
0
11
3.7765
21
6.9912
31
0
0
LINE
8
0
62
1
10
3.7765
20
6.9912
30
0
11
3.7766
21
6.9901
31
0
0
LINE
8
0
62
1
10
3.7766
20
6.9901
30
0
11
3.7766
21
6.9571
31
0
0
LINE
8
0
62
1
10
3.7766
20
6.9571
30
0
11
3.8426
21
6.9571
31
0
0
LINE
8
0
62
1
10
3.8426
20
6.9571
30
0
11
3.8426
21
7.0533
31
0
0
LINE
8
0
62
1
10
3.8426
20
7.0533
30
0
11
2.7894
21
7.0533
31
0
0
LINE
8
0
62
1
10
2.7894
20
7.0533
30
0
11
2.7883
21
7.0534
31
0
0
LINE
8
0
62
1
10
2.7883
20
7.0534
30
0
11
2.7872
21
7.0538
31
0
0
LINE
8
0
62
1
10
2.7872
20
7.0538
30
0
11
2.7863
21
7.0544
31
0
0
LINE
8
0
62
1
10
2.7863
20
7.0544
30
0
11
2.7855
21
7.0552
31
0
0
LINE
8
0
62
1
10
2.7855
20
7.0552
30
0
11
2.7849
21
7.0561
31
0
0
LINE
8
0
62
1
10
2.7849
20
7.0561
30
0
11
2.7845
21
7.0572
31
0
0
LINE
8
0
62
1
10
2.7845
20
7.0572
30
0
11
2.7844
21
7.0583
31
0
0
LINE
8
0
62
1
10
2.7844
20
7.0583
30
0
11
2.7844
21
7.8883
31
0
0
LINE
8
0
62
1
10
2.7844
20
7.8883
30
0
11
2.7845
21
7.8894
31
0
0
LINE
8
0
62
1
10
2.7845
20
7.8894
30
0
11
2.7849
21
7.8905
31
0
0
LINE
8
0
62
1
10
2.7849
20
7.8905
30
0
11
2.7855
21
7.8914
31
0
0
LINE
8
0
62
1
10
2.7855
20
7.8914
30
0
11
2.7863
21
7.8922
31
0
0
LINE
8
0
62
1
10
2.7863
20
7.8922
30
0
11
2.7872
21
7.8928
31
0
0
LINE
8
0
62
1
10
2.7872
20
7.8928
30
0
11
2.7883
21
7.8932
31
0
0
LINE
8
0
62
1
10
2.7883
20
7.8932
30
0
11
2.7894
21
7.8933
31
0
0
LINE
8
0
62
1
10
2.7894
20
7.8933
30
0
11
9.6358
21
7.8933
31
0
0
LINE
8
0
62
1
10
9.6358
20
7.8933
30
0
11
9.6369
21
7.8932
31
0
0
LINE
8
0
62
1
10
9.6369
20
7.8932
30
0
11
9.638
21
7.8928
31
0
0
LINE
8
0
62
1
10
9.638
20
7.8928
30
0
11
9.6389
21
7.8922
31
0
0
LINE
8
0
62
1
10
9.6389
20
7.8922
30
0
11
9.6397
21
7.8914
31
0
0
LINE
8
0
62
1
10
9.6397
20
7.8914
30
0
11
9.6403
21
7.8905
31
0
0
LINE
8
0
62
1
10
9.6403
20
7.8905
30
0
11
9.6407
21
7.8894
31
0
0
LINE
8
0
62
1
10
9.6407
20
7.8894
30
0
11
9.6408
21
7.8883
31
0
0
LINE
8
0
62
1
10
9.6408
20
7.8883
30
0
11
9.6408
21
7.0583
31
0
0
LINE
8
0
62
1
10
9.6408
20
7.0583
30
0
11
9.6407
21
7.0572
31
0
0
LINE
8
0
62
1
10
9.6407
20
7.0572
30
0
11
9.6403
21
7.0561
31
0
0
LINE
8
0
62
1
10
9.6403
20
7.0561
30
0
11
9.6397
21
7.0552
31
0
0
LINE
8
0
62
1
10
9.6397
20
7.0552
30
0
11
9.6389
21
7.0544
31
0
0
LINE
8
0
62
1
10
9.6389
20
7.0544
30
0
11
9.638
21
7.0538
31
0
0
LINE
8
0
62
1
10
9.638
20
7.0538
30
0
11
9.6369
21
7.0534
31
0
0
LINE
8
0
62
1
10
9.6369
20
7.0534
30
0
11
9.6358
21
7.0533
31
0
0
LINE
8
0
62
1
10
9.6358
20
7.0533
30
0
11
8.5826
21
7.0533
31
0
0
LINE
8
0
62
1
10
8.5826
20
7.0533
30
0
11
8.5826
21
6.9571
31
0
0
LINE
8
0
62
1
10
8.5826
20
6.9571
30
0
11
8.6486
21
6.9571
31
0
0
LINE
8
0
62
1
10
8.6486
20
6.9571
30
0
11
8.6486
21
6.9901
31
0
0
LINE
8
0
62
1
10
8.6486
20
6.9901
30
0
11
8.6487
21
6.9912
31
0
0
LINE
8
0
62
1
10
8.6487
20
6.9912
30
0
11
8.6491
21
6.9922
31
0
0
LINE
8
0
62
1
10
8.6491
20
6.9922
30
0
11
8.6497
21
6.9932
31
0
0
LINE
8
0
62
1
10
8.6497
20
6.9932
30
0
11
8.6505
21
6.994
31
0
0
LINE
8
0
62
1
10
8.6505
20
6.994
30
0
11
8.6515
21
6.9946
31
0
0
LINE
8
0
62
1
10
8.6515
20
6.9946
30
0
11
8.6525
21
6.995
31
0
0
LINE
8
0
62
1
10
8.6525
20
6.995
30
0
11
8.6536
21
6.9951
31
0
0
LINE
8
0
62
1
10
8.6536
20
6.9951
30
0
11
10.9603
21
6.9951
31
0
0
LINE
8
0
62
1
10
10.9603
20
6.9951
30
0
11
10.9614
21
6.995
31
0
0
LINE
8
0
62
1
10
10.9614
20
6.995
30
0
11
10.9625
21
6.9946
31
0
0
LINE
8
0
62
1
10
10.9625
20
6.9946
30
0
11
10.9634
21
6.994
31
0
0
LINE
8
0
62
1
10
10.9634
20
6.994
30
0
11
10.9642
21
6.9932
31
0
0
LINE
8
0
62
1
10
10.9642
20
6.9932
30
0
11
10.9648
21
6.9922
31
0
0
LINE
8
0
62
1
10
10.9648
20
6.9922
30
0
11
10.9652
21
6.9912
31
0
0
LINE
8
0
62
1
10
10.9652
20
6.9912
30
0
11
10.9653
21
6.9901
31
0
0
ENDSEC
0
EOF
